<?xml version="1.0" encoding="UTF-8"?>
<level>
  <owner>Fistachka</owner>
  <repo>dominant-low-D</repo>
  <version>v1.0.1</version>
  <next number="1" owner="stolbitsa" repo="dominant-harmonic"/>
  <readme>
    <ru>9462fe5f6a043f49a61bc7d8b48eed2dfdb41bc764eb419690c9a651dfff3a96</ru>
    <en>e1620c61172f3f90c520c25b9d07d31862151fe70c0f1dd48689f9e6e3f8ece1</en>
  </readme>
  <license>b1b99f5538d1fd3702219bff50c665196dfa42f6ee755c37fe41a6178d6bc6e5</license>
  <exercise number="1">
    <scale>major</scale>
    <bpm>80</bpm>
    <lowestNote>85</lowestNote>
    <tonalities>1,2,3,4,5,6,7,8,9,10,11,12</tonalities>
    <notes>
      <note number="1" values="1,5,85" ticks="0" durationTicks="105" ppq="96" velocity="0.843"/>
      <note number="2" values="1,5,85" ticks="56" durationTicks="91" ppq="96" velocity="0.913"/>
      <note number="3" values="1,5,85" ticks="146" durationTicks="208" ppq="96" velocity="0.874"/>
      <note number="4" values="1,5,85" ticks="196" durationTicks="161" ppq="96" velocity="0.921"/>
    </notes>
  </exercise>
  <exercise number="2">
    <scale>major</scale>
    <bpm>80</bpm>
    <lowestNote>85</lowestNote>
    <tonalities>1,2,3,4,5,6,7,8,9,10,11,12</tonalities>
    <notes>
      <note number="1" values="1,5,85" ticks="0" durationTicks="105" ppq="96" velocity="0.843"/>
      <note number="2" values="1,5,85" ticks="56" durationTicks="91" ppq="96" velocity="0.913"/>
      <note number="3" values="1,5,85" ticks="146" durationTicks="208" ppq="96" velocity="0.874"/>
      <note number="4" values="1,5,85" ticks="196" durationTicks="161" ppq="96" velocity="0.921"/>
    </notes>
  </exercise>
  <exercise number="3">
    <scale>major</scale>
    <bpm>80</bpm>
    <lowestNote>5</lowestNote>
    <tonalities>1,2,3,4,5,6,7,8,9,10,11,12</tonalities>
    <notes>
      <note number="1" values="5,18,58" ticks="0" durationTicks="105" ppq="96" velocity="0.843"/>
      <note number="2" values="5,18,58" ticks="56" durationTicks="91" ppq="96" velocity="0.913"/>
      <note number="3" values="5,18,58" ticks="146" durationTicks="208" ppq="96" velocity="0.874"/>
      <note number="4" values="5,18,58" ticks="196" durationTicks="161" ppq="96" velocity="0.921"/>
    </notes>
  </exercise>
  <exercise number="4">
    <scale>major</scale>
    <bpm>80</bpm>
    <lowestNote>5</lowestNote>
    <tonalities>1,2,3,4,5,6,7,8,9,10,11,12</tonalities>
    <notes>
      <note number="1" values="5,18,58" ticks="0" durationTicks="105" ppq="96" velocity="0.843"/>
      <note number="2" values="5,18,58" ticks="56" durationTicks="91" ppq="96" velocity="0.913"/>
      <note number="3" values="5,18,58" ticks="146" durationTicks="208" ppq="96" velocity="0.874"/>
      <note number="4" values="5,18,58" ticks="196" durationTicks="161" ppq="96" velocity="0.921"/>
    </notes>
  </exercise>
  <exercise number="5">
    <scale>major</scale>
    <bpm>80</bpm>
    <lowestNote>85</lowestNote>
    <tonalities>1,2,3,4,5,6,7,8,9,10,11,12</tonalities>
    <notes>
      <note number="1" values="1,5,85" ticks="0" durationTicks="105" ppq="96" velocity="0.843"/>
      <note number="2" values="1,5,85" ticks="56" durationTicks="91" ppq="96" velocity="0.913"/>
      <note number="3" values="1,5,85" ticks="146" durationTicks="208" ppq="96" velocity="0.874"/>
      <note number="4" values="1,5,85" ticks="196" durationTicks="161" ppq="96" velocity="0.921"/>
    </notes>
  </exercise>
  <exercise number="6">
    <scale>major</scale>
    <bpm>80</bpm>
    <lowestNote>85</lowestNote>
    <tonalities>1,2,3,4,5,6,7,8,9,10,11,12</tonalities>
    <notes>
      <note number="1" values="1,5,85" ticks="0" durationTicks="105" ppq="96" velocity="0.843"/>
      <note number="2" values="1,5,85" ticks="56" durationTicks="91" ppq="96" velocity="0.913"/>
      <note number="3" values="1,5,85" ticks="146" durationTicks="208" ppq="96" velocity="0.874"/>
      <note number="4" values="1,5,85" ticks="196" durationTicks="161" ppq="96" velocity="0.921"/>
    </notes>
  </exercise>
  <exercise number="7">
    <scale>major</scale>
    <bpm>80</bpm>
    <lowestNote>85</lowestNote>
    <tonalities>1,2,3,4,5,6,7,8,9,10,11,12</tonalities>
    <notes>
      <note number="1" values="1,5,85" ticks="0" durationTicks="105" ppq="96" velocity="0.843"/>
      <note number="2" values="1,5,85" ticks="56" durationTicks="91" ppq="96" velocity="0.913"/>
      <note number="3" values="1,5,85" ticks="146" durationTicks="208" ppq="96" velocity="0.874"/>
      <note number="4" values="1,5,85" ticks="196" durationTicks="161" ppq="96" velocity="0.921"/>
    </notes>
  </exercise>
  <exercise number="8">
    <scale>major</scale>
    <bpm>80</bpm>
    <lowestNote>5</lowestNote>
    <tonalities>1,2,3,4,5,6,7,8,9,10,11,12</tonalities>
    <notes>
      <note number="1" values="5,18,58" ticks="0" durationTicks="105" ppq="96" velocity="0.843"/>
      <note number="2" values="5,18,58" ticks="56" durationTicks="91" ppq="96" velocity="0.913"/>
      <note number="3" values="5,18,58" ticks="146" durationTicks="208" ppq="96" velocity="0.874"/>
      <note number="4" values="5,18,58" ticks="196" durationTicks="161" ppq="96" velocity="0.921"/>
    </notes>
  </exercise>
  <exercise number="9">
    <scale>major</scale>
    <bpm>80</bpm>
    <lowestNote>5</lowestNote>
    <tonalities>1,2,3,4,5,6,7,8,9,10,11,12</tonalities>
    <notes>
      <note number="1" values="5,18,58" ticks="0" durationTicks="105" ppq="96" velocity="0.843"/>
      <note number="2" values="5,18,58" ticks="56" durationTicks="91" ppq="96" velocity="0.913"/>
      <note number="3" values="5,18,58" ticks="146" durationTicks="208" ppq="96" velocity="0.874"/>
      <note number="4" values="5,18,58" ticks="196" durationTicks="161" ppq="96" velocity="0.921"/>
    </notes>
  </exercise>
  <exercise number="10">
    <scale>major</scale>
    <bpm>80</bpm>
    <lowestNote>5</lowestNote>
    <tonalities>1,2,3,4,5,6,7,8,9,10,11,12</tonalities>
    <notes>
      <note number="1" values="5,18,58" ticks="0" durationTicks="105" ppq="96" velocity="0.843"/>
      <note number="2" values="5,18,58" ticks="56" durationTicks="91" ppq="96" velocity="0.913"/>
      <note number="3" values="5,18,58" ticks="146" durationTicks="208" ppq="96" velocity="0.874"/>
      <note number="4" values="5,18,58" ticks="196" durationTicks="161" ppq="96" velocity="0.921"/>
    </notes>
  </exercise>
</level>
